<?xml version="1.0" standalone="no"?>
<!DOCTYPE svg PUBLIC "-//W3C//DTD SVG 20010904//EN"
 "http://www.w3.org/TR/2001/REC-SVG-20010904/DTD/svg10.dtd">
<svg version="1.0" xmlns="http://www.w3.org/2000/svg"
 width="16.000000pt" height="16.000000pt" viewBox="0 0 16.000000 16.000000"
 preserveAspectRatio="xMidYMid meet">
<metadata>
Created by potrace 1.11, written by Peter Selinger 2001-2013
</metadata>
<g transform="translate(0.000000,16.000000) scale(0.003125,-0.003125)"
fill="#000000" stroke="none">
<path d="M2082 4872 c-21 -18 -32 -36 -32 -53 0 -37 -21 -51 -82 -54 -29 -1
-102 -7 -162 -13 -95 -10 -112 -14 -136 -37 -16 -16 -38 -25 -57 -25 -72 0
-162 -67 -164 -122 0 -19 -4 -15 -19 16 -33 71 -94 98 -124 54 -27 -38 -23
-52 42 -151 14 -20 23 -39 21 -40 -21 -16 -110 -66 -128 -72 -13 -4 -60 -43
-104 -86 -54 -53 -88 -79 -104 -79 -17 0 -33 -14 -56 -47 -17 -26 -48 -65 -68
-88 -20 -22 -68 -84 -106 -137 l-70 -97 -23 24 c-18 19 -20 27 -11 44 9 17 8
24 -9 41 -26 26 -53 25 -120 -6 -64 -30 -70 -37 -70 -87 0 -20 -5 -46 -12 -56
-19 -31 1 -92 38 -116 55 -36 55 -47 -7 -190 -48 -111 -60 -131 -86 -141 -52
-22 -54 -29 -62 -211 -1 -7 -15 -25 -31 -40 -40 -35 -75 -114 -89 -200 -7 -38
-11 -74 -10 -79 1 -5 0 -16 -4 -24 -23 -60 -28 -329 -7 -355 7 -9 8 -15 0 -20
-5 -3 -10 -36 -10 -73 0 -46 -10 -96 -30 -162 -17 -51 -30 -100 -30 -107 0 -6
38 -49 84 -95 l84 -83 7 -115 c4 -64 14 -127 21 -142 8 -15 14 -45 14 -68 0
-30 6 -47 25 -65 13 -14 28 -25 34 -25 5 0 23 -24 39 -52 16 -29 71 -108 121
-176 50 -67 91 -126 91 -131 0 -5 -11 -12 -24 -15 -30 -7 -42 -41 -24 -65 89
-120 97 -128 127 -111 11 5 35 10 53 10 28 0 43 -10 98 -70 36 -38 70 -70 75
-70 6 0 37 -27 70 -60 48 -49 66 -60 102 -66 l43 -6 0 -45 c0 -36 6 -50 30
-74 16 -17 29 -33 29 -37 -5 -34 40 -63 81 -52 14 4 34 1 45 -6 11 -6 58 -15
104 -18 65 -5 100 -14 155 -40 39 -18 100 -39 136 -46 36 -7 97 -30 137 -51
49 -27 85 -39 112 -39 22 0 52 -5 68 -11 15 -6 83 -14 151 -19 94 -5 127 -11
141 -24 32 -29 97 -33 131 -7 17 12 44 21 66 21 20 0 75 7 123 14 47 8 127 20
176 26 109 13 342 58 370 71 11 5 58 20 105 34 76 22 110 42 122 74 3 9 176
116 213 132 11 5 30 16 43 25 21 16 22 15 22 -3 0 -25 27 -49 65 -59 17 -4 36
-12 44 -18 7 -6 42 -11 76 -11 60 0 64 2 118 48 32 27 57 57 57 67 0 10 5 22
10 25 6 3 10 25 10 49 0 33 -6 48 -28 69 -15 15 -33 27 -39 27 -6 0 -16 6 -22
13 -8 11 17 37 120 122 155 129 246 236 301 354 35 75 41 82 61 76 58 -19 79
-12 119 40 32 42 45 51 89 61 63 14 74 25 99 97 29 82 26 119 -11 162 -28 31
-37 35 -80 35 -54 0 -54 -1 -37 35 14 30 19 31 93 5 69 -24 137 -26 154 -6 7
8 11 27 9 42 -4 35 -48 62 -126 78 -48 9 -57 14 -54 31 1 11 7 52 13 90 22
157 39 302 39 341 0 31 6 46 26 65 32 30 54 71 54 101 0 50 -22 100 -49 116
-26 15 -29 22 -37 101 -4 47 -7 117 -6 155 1 53 -3 74 -17 95 -11 15 -22 45
-26 66 -14 85 -28 142 -47 178 -14 29 -16 42 -8 58 14 25 -2 109 -30 156 -11
18 -17 39 -14 47 3 7 -15 33 -39 58 -24 25 -51 61 -60 80 -9 20 -35 60 -57 89
-22 29 -40 63 -40 74 0 12 -4 25 -9 30 -5 6 -18 33 -28 60 -11 28 -46 83 -78
123 -54 65 -65 74 -125 93 -76 25 -101 42 -218 153 -87 83 -198 164 -282 206
-25 12 -54 30 -65 40 -11 10 -59 34 -108 54 -48 19 -131 62 -185 94 -88 54
-105 61 -184 72 -78 11 -87 14 -92 35 -11 44 -48 95 -72 101 -37 10 -112 -14
-154 -47 l-38 -31 -139 2 c-154 3 -370 -4 -377 -11 -3 -3 -23 -3 -45 -1 -37 4
-41 7 -41 32 0 19 -10 37 -31 54 -42 35 -93 35 -137 -2z"/>
</g>
</svg>
