<?xml version="1.0" standalone="no"?>
<!DOCTYPE svg PUBLIC "-//W3C//DTD SVG 20010904//EN"
 "http://www.w3.org/TR/2001/REC-SVG-20010904/DTD/svg10.dtd">
<svg version="1.0" xmlns="http://www.w3.org/2000/svg"
 width="399.000000pt" height="399.000000pt" viewBox="0 0 399.000000 399.000000"
 preserveAspectRatio="xMidYMid meet">
<metadata>
Created by potrace 1.11, written by Peter Selinger 2001-2013
</metadata>
<g transform="translate(0.000000,399.000000) scale(0.100000,-0.100000)"
fill="#000000" stroke="none">
<path d="M987 3111 c-14 -10 -18 -11 -12 -2 6 10 3 11 -11 3 -11 -5 -34 -9
-52 -8 -17 0 -32 -3 -32 -7 0 -5 -4 -6 -9 -3 -12 8 -143 -27 -203 -53 -38 -16
-46 -24 -43 -40 4 -20 -30 -50 -42 -37 -3 3 2 8 11 12 9 3 16 12 16 20 0 24
-65 -26 -95 -73 -15 -24 -32 -43 -38 -42 -8 0 -8 2 1 6 6 2 12 9 12 14 0 6 -7
6 -17 0 -39 -23 -53 -39 -55 -64 -1 -14 -6 -23 -10 -21 -5 3 -5 11 -2 17 4 7
-2 3 -13 -8 -11 -11 -18 -26 -15 -34 3 -9 1 -12 -6 -7 -7 4 -16 -3 -23 -18 -7
-14 -17 -23 -22 -19 -6 4 -8 0 -4 -10 3 -9 0 -18 -8 -21 -16 -6 -60 -86 -48
-86 5 0 2 -4 -6 -9 -9 -6 -10 -11 -2 -15 10 -7 16 7 11 29 -1 6 2 7 6 3 4 -4
14 -2 22 5 9 7 5 -6 -8 -29 -22 -38 -26 -40 -38 -25 -7 9 -10 10 -7 3 9 -17
-14 -74 -27 -66 -6 4 -5 -4 2 -16 8 -15 8 -20 1 -16 -10 7 -13 3 -15 -26 -1
-7 -6 -19 -13 -26 -11 -11 -22 -58 -38 -152 -13 -80 -17 -345 -5 -375 14 -33
17 -60 24 -185 6 -107 14 -157 27 -181 5 -10 7 -19 5 -19 -3 0 -1 -12 5 -27 6
-16 13 -39 16 -53 2 -13 9 -27 14 -31 6 -3 10 -8 8 -10 -4 -8 25 -79 33 -79 4
0 8 -9 8 -19 0 -11 3 -21 8 -23 4 -1 24 -29 46 -61 43 -64 170 -187 193 -187
8 0 11 -4 8 -10 -3 -5 3 -10 14 -10 12 0 21 -4 21 -8 0 -13 154 -86 203 -97
12 -2 41 -9 65 -15 24 -6 47 -8 53 -5 5 4 9 2 9 -2 0 -5 10 -9 23 -9 30 -1
135 -13 172 -20 52 -10 375 -5 418 7 52 14 95 22 125 23 12 0 22 4 22 8 0 4 0
11 0 16 1 6 123 41 160 45 8 1 17 5 20 8 3 3 37 18 75 33 63 25 132 61 145 75
10 11 52 32 56 28 2 -2 -7 -14 -20 -26 -21 -20 -38 -27 -69 -30 -5 -1 -5 -6
-2 -11 4 -6 3 -9 -2 -8 -13 4 -83 -25 -83 -35 0 -4 -4 -6 -9 -3 -5 3 -12 -1
-15 -10 -3 -8 -11 -14 -18 -12 -7 1 -23 -3 -35 -10 -12 -7 -30 -9 -40 -6 -15
5 -15 4 -3 -5 12 -9 13 -11 1 -11 -8 0 -12 -2 -10 -5 6 -5 112 25 119 34 3 3
41 24 85 46 44 21 110 60 146 86 179 127 381 211 514 211 39 1 79 -2 90 -5 11
-3 42 -10 70 -17 27 -6 55 -16 62 -22 7 -6 13 -7 13 -4 0 4 10 0 22 -8 12 -9
30 -16 40 -16 10 0 18 -5 18 -11 0 -5 4 -8 9 -4 6 3 13 0 18 -7 4 -7 22 -20
38 -28 17 -8 106 -91 198 -183 92 -92 172 -165 177 -162 6 4 10 2 10 -3 0 -16
50 -20 65 -6 7 8 18 14 24 14 5 0 13 9 16 20 3 11 10 20 14 20 4 0 13 12 19
26 7 14 16 23 21 19 5 -3 13 0 17 6 4 8 3 9 -4 5 -20 -12 -14 3 17 42 64 83
103 180 107 267 1 38 -1 74 -6 80 -4 5 -8 28 -7 51 0 67 -62 172 -163 274
l-87 87 60 54 c80 72 187 186 187 200 0 4 6 14 14 21 23 23 74 129 91 191 34
120 4 261 -76 352 -33 37 -45 39 -124 19 -22 -5 -171 -153 -240 -238 -72 -89
-79 -97 -140 -156 -115 -113 -198 -176 -217 -164 -6 4 -8 3 -5 -3 4 -6 -9 -20
-28 -32 -50 -29 -44 -6 7 27 59 38 167 149 184 190 9 23 19 32 28 29 10 -4 20
4 29 21 8 15 24 45 36 67 l23 40 -24 -30 c-68 -87 -151 -174 -161 -168 -6 4
-2 13 12 24 12 10 36 45 53 78 17 33 35 58 39 55 5 -3 6 3 2 12 -4 12 -3 15 5
10 8 -5 19 5 30 24 9 18 31 51 47 73 47 65 68 100 54 92 -9 -6 -10 -3 -5 11 8
22 3 17 -43 -43 -18 -24 -30 -46 -28 -51 8 -12 -37 -79 -49 -75 -7 2 -26 -18
-42 -44 -17 -26 -48 -70 -69 -98 -21 -27 -30 -44 -20 -36 9 7 17 9 17 3 0 -11
-66 -66 -74 -61 -2 2 -20 -10 -38 -28 -44 -42 -152 -95 -208 -101 -37 -5 -41
-7 -20 -12 24 -6 23 -7 -8 -12 -23 -3 -31 -1 -28 7 2 6 -2 12 -9 12 -7 0 -11
-6 -8 -14 4 -9 0 -11 -11 -7 -9 3 -13 10 -10 15 3 5 0 9 -5 9 -6 0 -11 -4 -11
-8 0 -11 -89 -3 -110 9 -9 5 3 6 29 3 25 -3 49 -7 53 -10 4 -3 8 -3 8 0 0 10
-74 37 -87 32 -14 -6 -129 67 -135 85 -2 7 -15 13 -29 14 -13 1 -24 6 -24 11
0 18 -17 34 -27 28 -7 -4 -8 -2 -4 4 3 6 -12 31 -35 55 -56 61 -172 228 -220
317 -13 25 -26 47 -29 50 -10 10 -31 45 -36 63 -4 9 -10 17 -14 17 -5 0 -11 8
-14 18 -13 37 -171 202 -195 202 -5 0 -11 6 -14 13 -12 31 -278 144 -355 151
-48 5 -92 18 -86 27 4 7 -14 12 -28 8 -2 0 -16 4 -31 10 -21 8 -26 8 -21 -1 5
-7 3 -8 -6 -3 -7 4 -27 11 -45 15 -25 6 -32 4 -29 -5 4 -9 -3 -12 -20 -11 -30
1 -34 12 -8 19 9 3 -27 5 -82 4 -67 -1 -105 -6 -119 -16z m173 6 c-9 -8 -90
-15 -90 -8 0 4 21 8 47 10 26 1 45 0 43 -2z m-20 -46 c0 -4 -26 -12 -57 -16
-32 -4 -65 -8 -73 -10 -8 -2 -51 -11 -95 -20 -92 -20 -145 -25 -145 -14 0 5
19 13 41 19 23 6 52 16 65 20 15 6 24 6 24 0 0 -6 -10 -11 -22 -11 -17 -1 -19
-2 -6 -6 10 -2 44 3 75 12 32 10 87 21 123 25 36 4 66 8 68 9 1 0 2 -3 2 -8z
m-490 -61 c0 -5 -2 -10 -4 -10 -3 0 -8 5 -11 10 -3 6 -1 10 4 10 6 0 11 -4 11
-10z m102 -9 c-8 -4 -13 -12 -11 -17 1 -5 -17 -19 -41 -31 -23 -12 -50 -29
-60 -38 -11 -10 -20 -12 -24 -6 -4 5 2 14 11 20 10 6 13 11 7 11 -14 0 -36
-25 -28 -32 3 -3 1 -9 -5 -13 -6 -3 -11 -2 -11 4 0 6 -7 8 -15 5 -8 -4 -15
-10 -15 -16 0 -5 4 -7 8 -4 4 2 9 -4 9 -15 1 -10 -3 -19 -8 -19 -6 0 -7 -5 -3
-12 4 -6 3 -8 -4 -4 -6 3 -9 15 -7 26 7 34 -12 22 -67 -42 -29 -34 -62 -71
-74 -82 -12 -12 -31 -41 -43 -64 -12 -24 -25 -42 -28 -39 -6 6 35 84 55 105 6
7 12 16 12 20 0 8 117 132 125 132 3 0 27 16 53 35 48 34 148 85 167 85 6 0 4
-4 -3 -9z m7 -64 c-2 -2 -35 -25 -74 -52 -106 -74 -215 -190 -288 -308 -21
-34 -43 -61 -48 -59 -6 1 -8 -7 -5 -20 3 -13 3 -17 0 -10 -3 6 -10 10 -15 6
-18 -10 -9 15 10 28 22 16 34 47 40 111 1 5 5 6 10 3 5 -3 8 2 7 12 0 9 5 16
12 14 8 -1 16 7 19 18 3 11 9 17 14 14 5 -3 7 1 4 8 -6 15 60 88 80 88 7 0 15
4 17 9 2 5 23 25 46 45 24 20 40 36 35 36 -5 0 -14 -5 -21 -12 -8 -8 -12 -8
-12 -1 0 13 28 25 42 17 5 -3 17 1 26 9 22 19 96 56 101 51 2 -2 2 -5 0 -7z
m-289 -70 c0 -2 -10 -12 -22 -23 l-23 -19 19 23 c18 21 26 27 26 19z m560
-291 c0 20 41 -59 48 -94 10 -41 6 -62 -10 -62 -6 0 -8 11 -4 25 4 17 2 25 -6
25 -10 0 -10 2 1 9 9 6 10 11 2 15 -6 4 -14 5 -19 2 -4 -2 -8 9 -8 26 -1 16
-12 41 -25 56 -23 25 -23 26 -1 8 12 -11 22 -15 22 -10z m-717 -6 c-5 -19 -23
-39 -23 -25 0 9 20 45 24 45 2 0 2 -9 -1 -20z m692 -10 c10 -11 16 -20 13 -20
-3 0 -13 9 -23 20 -10 11 -16 20 -13 20 3 0 13 -9 23 -20z m-100 -30 c-3 -5
12 -18 35 -30 22 -11 40 -25 40 -30 0 -6 7 -10 15 -10 8 0 15 5 15 11 0 5 -6
7 -12 3 -7 -4 -10 -4 -6 1 4 4 3 14 -3 22 -16 19 2 16 26 -5 31 -26 58 -112
35 -112 -5 0 -10 7 -10 15 0 8 -2 15 -4 15 -2 0 -10 2 -18 5 -9 4 -14 -5 -15
-26 -4 -55 -48 -89 -119 -93 -30 -1 -32 1 -27 25 4 22 1 27 -21 33 -15 4 -32
4 -38 0 -6 -4 -8 -3 -5 3 4 6 0 19 -8 29 -40 53 3 130 80 147 35 8 46 7 40 -3z
m-674 -91 c-5 -13 -10 -19 -10 -12 -1 15 10 45 15 40 3 -2 0 -15 -5 -28z m96
15 c-3 -3 -12 -4 -19 -1 -8 3 -5 6 6 6 11 1 17 -2 13 -5z m-113 -40 c3 -9 2
-12 -5 -9 -6 4 -9 1 -8 -6 3 -13 0 -37 -18 -164 -4 -27 -7 -102 -7 -165 1 -63
-1 -105 -3 -92 -2 12 -8 22 -12 22 -13 0 -2 240 15 310 3 14 7 38 10 55 5 34
14 65 19 65 1 0 6 -7 9 -16z m81 -4 c3 -5 1 -10 -4 -10 -6 0 -11 5 -11 10 0 6
2 10 4 10 3 0 8 -4 11 -10z m-16 -58 c-5 -2 -7 -8 -4 -12 3 -5 1 -11 -3 -14
-8 -5 -9 7 -3 54 2 11 5 9 10 -5 5 -11 4 -22 0 -23z m562 -39 c-8 -15 -10 -15
-11 -2 0 17 10 32 18 25 2 -3 -1 -13 -7 -23z m-609 -95 c-9 -20 -11 -18 -11
22 0 40 2 42 11 23 8 -17 8 -29 0 -45z m2928 18 c0 -2 -8 -10 -17 -17 -16 -13
-17 -12 -4 4 13 16 21 21 21 13z m20 -49 c0 -2 -10 -12 -22 -23 l-23 -19 19
23 c18 21 26 27 26 19z m-80 -70 c-99 -91 -206 -157 -277 -171 -47 -8 -41 0
15 18 68 23 158 81 225 144 32 30 61 51 65 48 3 -4 -9 -22 -28 -39z m-555 -76
c-6 -5 -85 42 -85 50 0 5 20 -4 44 -19 24 -15 42 -29 41 -31z m-2388 -103 c-3
-7 -5 -2 -5 12 0 14 2 19 5 13 2 -7 2 -19 0 -25z m2731 -3 c-3 -3 -14 -7 -24
-9 -11 -3 -28 -7 -39 -11 -14 -4 -12 -2 5 9 23 14 70 23 58 11z m618 -263
c108 -106 166 -190 182 -262 7 -32 14 -215 8 -209 -3 3 -8 30 -10 60 -3 30 -5
54 -6 54 -2 0 -5 13 -14 51 -6 28 -52 120 -80 158 -27 38 -112 125 -149 151
-25 18 -26 21 -10 33 24 17 25 17 79 -36z m-1011 -372 c-3 -5 -12 -10 -20 -10
-7 0 -65 -26 -129 -58 -64 -32 -116 -57 -116 -56 0 7 121 85 147 95 15 6 48
17 73 24 25 7 46 14 48 14 2 1 0 -3 -3 -9z m-455 -171 c-27 -23 -120 -72 -120
-64 0 2 19 14 43 26 23 12 44 24 47 28 6 7 43 30 50 30 3 0 -6 -9 -20 -20z
m130 -3 c0 -2 -7 -7 -16 -10 -8 -3 -12 -2 -9 4 6 10 25 14 25 6z m-280 -80 c0
-2 -7 -7 -16 -10 -8 -3 -12 -2 -9 4 6 10 25 14 25 6z m-330 -146 c-9 -5 -49
-12 -90 -15 -41 -4 -82 -9 -90 -11 -10 -4 -12 -2 -5 5 6 5 46 13 90 17 44 3
82 8 84 10 2 2 9 4 15 4 6 0 4 -5 -4 -10z m-385 -38 c-3 -3 -11 0 -18 7 -9 10
-8 11 6 5 10 -3 15 -9 12 -12z m133 11 c-10 -2 -26 -2 -35 0 -10 3 -2 5 17 5
19 0 27 -2 18 -5z"/>
<path d="M683 2970 c-18 -11 -33 -22 -33 -25 0 -7 72 23 85 36 17 17 -19 10
-52 -11z"/>
<path d="M3073 3067 c-27 -14 -49 -54 -52 -95 0 -10 -7 -27 -15 -37 -13 -18
-15 -17 -27 23 -6 23 -15 42 -18 42 -4 0 -14 -23 -24 -50 -10 -28 -22 -48 -28
-45 -5 4 -9 -4 -9 -16 0 -27 2 -25 33 29 l24 44 8 -29 c13 -55 44 -70 62 -30
6 13 16 49 23 80 10 52 30 87 30 55 1 -27 13 -124 20 -163 l8 -40 1 45 c1 48
15 80 28 66 4 -4 13 -22 20 -39 l11 -32 1 28 c1 38 -16 67 -39 67 -21 0 -24
12 -20 78 2 34 -2 36 -37 19z"/>
<path d="M3293 3059 c4 -13 7 -41 7 -61 0 -44 14 -51 18 -10 8 78 7 86 -12 90
-15 3 -18 0 -13 -19z"/>
<path d="M2184 3058 c-31 -10 -54 -51 -54 -94 1 -42 71 -97 111 -87 11 3 26
18 35 34 17 34 71 43 68 12 -1 -7 3 -13 8 -13 6 0 5 -6 -2 -15 -18 -22 -32
-18 -25 6 5 13 3 19 -3 15 -5 -3 -12 -15 -15 -26 -5 -19 4 -25 28 -20 5 1 18
2 28 3 17 1 18 18 1 78 -9 33 -41 28 -86 -12 -24 -21 -52 -39 -64 -39 -55 0
-75 102 -25 127 17 8 31 9 43 2 14 -8 18 -6 18 10 0 14 -24 36 -33 30 -1 -1
-16 -6 -33 -11z"/>
<path d="M2711 3026 c-10 -12 -6 -26 10 -26 11 0 19 29 10 35 -5 2 -14 -1 -20
-9z"/>
<path d="M2887 2983 c3 -21 10 -45 15 -53 8 -12 8 -11 4 3 -3 10 -6 34 -6 53
0 19 -4 34 -9 34 -6 0 -7 -17 -4 -37z"/>
<path d="M2530 2937 c0 -60 3 -76 16 -81 9 -4 19 -4 22 -1 3 3 0 5 -6 5 -7 0
-12 16 -12 38 0 41 7 56 30 65 12 4 11 6 -3 6 -11 1 -17 7 -15 18 2 10 -4 19
-14 21 -16 3 -18 -5 -18 -71z"/>
<path d="M2416 2972 c-3 -5 -1 -14 3 -21 5 -7 7 -38 5 -70 l-3 -56 14 54 c15
58 27 77 44 67 17 -11 13 -44 -6 -49 -14 -3 -13 -4 2 -3 21 1 32 41 18 62 -10
14 -71 26 -77 16z"/>
<path d="M2623 2969 c-33 -12 -28 -29 7 -29 33 0 40 -17 13 -27 -25 -9 -34
-25 -22 -40 12 -14 39 -6 55 16 8 10 9 24 2 42 -13 38 -29 48 -55 38z m29 -81
c-6 -6 -15 -8 -19 -4 -4 4 -1 11 7 16 19 12 27 3 12 -12z"/>
<path d="M2716 2939 c5 -54 14 -64 14 -16 0 21 0 40 1 44 0 4 -4 9 -9 11 -6 2
-8 -15 -6 -39z"/>
<path d="M3197 2965 c-25 -18 -21 -27 10 -23 31 4 43 -18 14 -27 -10 -3 -22
-12 -25 -20 -7 -18 30 -40 39 -24 4 6 13 8 21 5 15 -6 15 6 -1 66 -8 30 -34
41 -58 23z m43 -64 c0 -12 -20 -25 -27 -18 -7 7 6 27 18 27 5 0 9 -4 9 -9z"/>
<path d="M2773 2949 c4 -13 7 -39 7 -56 0 -41 15 -44 16 -3 3 55 44 78 44 25
0 -13 4 -26 9 -29 8 -5 -2 61 -11 69 -1 1 -18 6 -37 10 -32 7 -34 6 -28 -16z"/>
<path d="M3362 2958 c-19 -19 -14 -53 13 -78 27 -26 35 -17 9 11 -15 17 -13
18 27 29 l44 12 -24 19 c-27 22 -52 24 -69 7z m42 -19 c-3 -5 -10 -7 -15 -3
-5 3 -7 10 -3 15 3 5 10 7 15 3 5 -3 7 -10 3 -15z"/>
<path d="M3302 2925 c0 -16 2 -22 5 -12 2 9 2 23 0 30 -3 6 -5 -1 -5 -18z"/>
<path d="M2410 2809 c0 -5 5 -7 10 -4 6 3 10 8 10 11 0 2 -4 4 -10 4 -5 0 -10
-5 -10 -11z"/>
<path d="M3512 2669 c-12 -5 -22 -14 -22 -21 0 -9 3 -9 12 0 17 17 89 15 118
-4 24 -16 24 -16 8 1 -19 21 -86 35 -116 24z"/>
<path d="M3445 2632 c-19 -16 -59 -72 -52 -72 5 0 38 31 66 63 27 30 17 36
-14 9z"/>
<path d="M3562 1714 c10 -10 20 -16 22 -13 3 3 -5 11 -17 18 -21 13 -21 12 -5
-5z"/>
<path d="M3731 1482 c6 -18 15 -35 20 -38 5 -3 4 7 -3 23 -17 41 -30 53 -17
15z"/>
<path d="M3756 1387 c3 -10 9 -15 12 -12 3 3 0 11 -7 18 -10 9 -11 8 -5 -6z"/>
<path d="M3768 1335 c2 -14 6 -25 8 -25 2 0 4 11 4 25 0 14 -4 25 -9 25 -4 0
-6 -11 -3 -25z"/>
<path d="M3679 1003 c-31 -50 -35 -61 -17 -42 16 16 51 79 44 79 -2 0 -15 -17
-27 -37z"/>
<path d="M1743 931 c-29 -9 -55 -20 -59 -24 -13 -13 31 -7 60 8 16 9 36 13 43
10 8 -2 12 -1 8 4 -3 5 1 12 7 14 29 12 -11 4 -59 -12z"/>
</g>
</svg>
